<svg width="216" height="188" viewBox="0 0 216 188" fill="none" xmlns="http://www.w3.org/2000/svg">
<g opacity="0.26">
<path d="M120.505 0L174.065 93.2257H214.229L160.669 0H120.505Z" fill="#65B2E7"/>
<path d="M40.1772 0L93.7367 93.2257H133.9L80.3456 0H40.1772Z" fill="#65B2E7"/>
<path d="M93.7188 93.2305L40.164 186.461H0.000275803L53.5503 93.2305H93.7188Z" fill="#65B2E7"/>
<path d="M174.064 93.2305L120.51 186.461H80.346L133.896 93.2305H174.064Z" fill="#65B2E7"/>
<path d="M177.906 169.055C177.906 165.308 179.023 161.645 181.116 158.53C183.209 155.414 186.184 152.986 189.664 151.552C193.144 150.118 196.974 149.742 200.669 150.473C204.364 151.204 207.757 153.009 210.421 155.659C213.085 158.308 214.899 161.684 215.634 165.359C216.369 169.034 215.992 172.844 214.55 176.306C213.108 179.768 210.667 182.726 207.535 184.808C204.403 186.89 200.72 188.001 196.953 188.001C191.901 188.001 187.057 186.005 183.485 182.452C179.913 178.899 177.906 174.08 177.906 169.055Z" fill="#65B2E7"/>
</g>
</svg>
