<svg width="184" height="160" viewBox="0 0 184 160" fill="none" xmlns="http://www.w3.org/2000/svg">
<path d="M102.652 0L148.277 79.341H182.49L136.865 0H102.652Z" fill="white"/>
<path d="M34.2262 0L79.8509 79.341H114.064L68.4437 0H34.2262Z" fill="white"/>
<path d="M79.834 79.3438L34.2133 158.689H-0.00026827L45.6164 79.3438H79.834Z" fill="white"/>
<path d="M148.277 79.3438L102.657 158.689H68.4431L114.06 79.3438H148.277Z" fill="white"/>
<path d="M151.549 143.874C151.549 140.685 152.501 137.568 154.284 134.916C156.067 132.264 158.601 130.198 161.566 128.977C164.53 127.757 167.793 127.438 170.94 128.06C174.088 128.682 176.979 130.218 179.248 132.473C181.517 134.728 183.062 137.601 183.688 140.729C184.314 143.856 183.993 147.098 182.765 150.045C181.537 152.991 179.457 155.509 176.789 157.281C174.121 159.053 170.984 159.998 167.775 159.998C163.472 159.998 159.345 158.3 156.302 155.276C153.259 152.252 151.549 148.151 151.549 143.874Z" fill="white"/>
</svg>
