<svg width="511" height="40" viewBox="0 0 511 40" fill="none" xmlns="http://www.w3.org/2000/svg">
<path d="M81.6758 36.6548V31.6248H89.1958V7.49875H81.6758V2.46875H102.935V7.49875H95.4158V31.6248H102.935V36.6548H81.6758Z" fill="white"/>
<path d="M119.495 22.2349V31.8409H128.536V36.7789H107.652V31.8409H113.721V16.9279H107.652V11.8179H118.831L118.931 16.4369C119.605 14.8629 120.735 13.5273 122.176 12.6031C123.617 11.6788 125.302 11.2085 127.013 11.2529C128.76 11.212 130.487 11.6255 132.025 12.4529L130.896 18.1289C129.476 17.3997 127.899 17.0286 126.302 17.0479C124.752 17.0288 123.24 17.5287 122.007 18.4681C120.774 19.4075 119.89 20.7323 119.496 22.2319" fill="white"/>
<path d="M138.824 36.7785V31.8405H147.055V16.9275H138.824V11.8195H152.853V31.8405H161.083V36.7785H138.824ZM145.63 3.97854C145.707 2.96244 146.165 2.01287 146.912 1.32002C147.659 0.627165 148.641 0.242188 149.66 0.242188C150.679 0.242188 151.66 0.627165 152.407 1.32002C153.155 2.01287 153.612 2.96244 153.689 3.97854C153.689 5.04723 153.265 6.07215 152.509 6.82783C151.753 7.5835 150.728 8.00804 149.66 8.00804C148.591 8.00804 147.566 7.5835 146.81 6.82783C146.055 6.07215 145.63 5.04723 145.63 3.97854Z" fill="white"/>
<path d="M168.18 32.354L171.791 28.62C172.754 29.8704 174 30.8743 175.426 31.5491C176.853 32.224 178.419 32.5506 179.997 32.502C183.117 32.502 184.297 31.445 184.297 29.947C184.297 28.276 183.097 27.564 180.538 27.097L177.811 26.605C172.725 25.696 169.163 23.755 169.163 19.136C169.163 14.419 173.192 11.25 179.457 11.25C184.346 11.25 187.957 12.871 190.415 16.188L186.656 19.775C185.804 18.5897 184.671 17.6346 183.359 16.9956C182.047 16.3566 180.596 16.0536 179.138 16.114C176.386 16.114 174.864 17.048 174.864 18.669C174.864 20.315 175.994 20.954 179.016 21.519L181.645 21.986C187.394 22.993 189.998 25.155 189.998 29.479C189.998 34.589 185.798 37.341 179.704 37.341C175.183 37.341 171.129 35.916 168.181 32.354" fill="white"/>
<path d="M235.79 36.7788L233.432 28.1058H222.941L220.607 36.7788H214.539L224.563 2.38281H231.835L241.863 36.7788H235.79ZM224.292 23.1468H232.08L229.869 14.9648C229.23 12.7288 228.714 10.7388 228.198 8.62581C227.682 10.7388 227.141 12.7258 226.498 14.9648L224.292 23.1468Z" fill="white"/>
<path d="M269.62 36.7784H264.411L264.362 33.4624C263.488 34.7229 262.308 35.7404 260.932 36.4193C259.557 37.0982 258.032 37.4162 256.5 37.3434C250.578 37.3434 247.262 33.7814 247.262 26.6564V11.8164H253.085V26.4104C253.085 30.3654 254.78 31.9874 257.924 31.9874C259.122 31.9964 260.3 31.6816 261.334 31.0763C262.367 30.4709 263.218 29.5975 263.797 28.5484V11.8164H269.597L269.62 36.7784Z" fill="white"/>
<path d="M290.923 36.7766C284.952 36.7766 282.201 34.2946 282.201 28.8656V16.9036H276.359V11.8186H282.206V4.22656H288.006V11.8186H298.959V16.9036H287.999V28.8696C287.999 31.0806 288.614 31.6696 290.923 31.6696H298.959V36.7766H290.923Z" fill="white"/>
<path d="M304.914 24.296C304.914 16.582 310.269 11.25 317.64 11.25C325.011 11.25 330.366 16.581 330.366 24.296C330.366 32.011 325.01 37.342 317.64 37.342C310.27 37.342 304.914 32.01 304.914 24.296ZM324.446 24.296C324.446 19.456 321.846 16.582 317.64 16.582C313.434 16.582 310.834 19.456 310.834 24.296C310.834 29.136 313.434 32.01 317.64 32.01C321.846 32.01 324.446 29.136 324.446 24.296Z" fill="white"/>
<path d="M362.206 18.7451V36.7791H357.071V19.1631C357.071 17.1241 356.358 16.1631 354.836 16.1631C354.284 16.153 353.741 16.2975 353.268 16.5803C352.795 16.8631 352.41 17.2728 352.158 17.7631C352.183 18.0821 352.183 18.4021 352.183 18.7461V36.7791H346.999V19.1631C346.999 17.0991 346.36 16.1631 344.837 16.1631C344.244 16.1636 343.665 16.3418 343.175 16.6746C342.684 17.0074 342.305 17.4795 342.086 18.0301V36.7791H336.926V11.8171H341.52L341.62 14.4171C342.028 13.4326 342.732 12.599 343.634 12.0314C344.536 11.4638 345.592 11.1901 346.657 11.2481C347.706 11.1683 348.753 11.4383 349.633 12.0159C350.513 12.5935 351.177 13.4463 351.522 14.4411C351.95 13.449 352.671 12.6114 353.589 12.0407C354.506 11.47 355.577 11.1935 356.656 11.2481C360.194 11.2481 362.209 13.6071 362.209 18.7411" fill="white"/>
<path d="M394.055 31.6395V36.9215H391.279C388.208 36.9215 385.879 36.2585 385.479 33.0155C383.932 35.7915 381.079 37.3395 377.396 37.3395C371.769 37.3395 368.969 34.0965 368.969 30.0395C368.969 25.3965 372.433 22.9635 379.069 22.9635H384.94V21.5635C384.94 17.9025 383.491 16.3055 380.396 16.3055C377.865 16.3055 375.801 17.4115 374.646 20.4575L369.88 18.3205C371.305 13.9715 375.064 11.2695 380.641 11.2695C387.25 11.2695 390.567 14.8075 390.567 21.5635V30.0635C390.567 31.1935 390.96 31.6355 392.067 31.6355L394.055 31.6395ZM384.939 29.9395V26.7045H379.362C376.242 26.7045 375.136 27.7115 375.136 29.6045C375.136 31.4225 376.636 32.6045 379.165 32.6045C380.269 32.6579 381.37 32.4447 382.375 31.9829C383.38 31.5212 384.259 30.8244 384.938 29.9515" fill="white"/>
<path d="M412.46 36.7766C406.49 36.7766 403.739 34.2946 403.739 28.8656V16.9036H397.891V11.8186H403.737V4.22656H409.537V11.8186H420.494V16.9036H409.537V28.8696C409.537 31.0806 410.151 31.6696 412.46 31.6696H420.494V36.7766H412.46Z" fill="white"/>
<path d="M427.988 36.7798V31.8418H436.219V16.9288H427.988V11.8208H442.017V31.8418H450.247V36.7798H427.988ZM434.794 3.97981C434.873 2.96496 435.331 2.01707 436.078 1.3256C436.825 0.634124 437.805 0.25 438.823 0.25C439.841 0.25 440.822 0.634124 441.568 1.3256C442.315 2.01707 442.774 2.96496 442.852 3.97981C442.852 5.04837 442.428 6.07316 441.672 6.82874C440.917 7.58433 439.892 8.00881 438.823 8.00881C437.755 8.00881 436.73 7.58433 435.974 6.82874C435.219 6.07316 434.794 5.04837 434.794 3.97981Z" fill="white"/>
<path d="M455.887 24.296C455.887 16.582 461.242 11.25 468.613 11.25C475.984 11.25 481.34 16.581 481.34 24.296C481.34 32.011 475.984 37.342 468.613 37.342C461.242 37.342 455.887 32.01 455.887 24.296ZM475.419 24.296C475.419 19.456 472.819 16.582 468.613 16.582C464.407 16.582 461.806 19.455 461.806 24.296C461.806 29.137 464.406 32.01 468.612 32.01C472.818 32.01 475.419 29.136 475.419 24.296Z" fill="white"/>
<path d="M510.856 21.9371V36.7771H505.033V22.1831C505.033 18.2521 503.333 16.6061 500.193 16.6061C498.995 16.5974 497.818 16.9124 496.784 17.5177C495.751 18.123 494.9 18.9962 494.322 20.0451V36.7771H488.5V11.8151H493.733L493.782 15.1311C494.649 13.8693 495.824 12.8502 497.196 12.1708C498.567 11.4913 500.09 11.174 501.619 11.2491C507.54 11.2491 510.857 14.8121 510.857 21.9361" fill="white"/>
<path d="M20.21 0L8.875 19.835H0.375L11.71 0H20.21Z" fill="#65B2E7"/>
<path d="M37.21 0L25.875 19.835H17.375L28.709 0H37.21Z" fill="#65B2E7"/>
<path d="M25.8789 19.8359L37.2129 39.6719H45.7129L34.3799 19.8359H25.8789Z" fill="#65B2E7"/>
<path d="M8.875 19.8359L20.209 39.6719H28.709L17.376 19.8359H8.875Z" fill="#65B2E7"/>
<path d="M8.062 35.9685C8.062 35.1712 7.82559 34.3919 7.38266 33.729C6.93972 33.0661 6.31017 32.5494 5.5736 32.2443C4.83703 31.9392 4.02653 31.8594 3.24459 32.015C2.46266 32.1705 1.7444 32.5544 1.18065 33.1182C0.616909 33.6819 0.232993 34.4002 0.0774563 35.1821C-0.0780807 35.964 0.00174659 36.7745 0.306843 37.5111C0.61194 38.2477 1.1286 38.8772 1.7915 39.3202C2.45439 39.7631 3.23375 39.9995 4.031 39.9995C5.10009 39.9995 6.12539 39.5748 6.88135 38.8189C7.63731 38.0629 8.062 37.0376 8.062 35.9685Z" fill="#65B2E7"/>
</svg>
